<?xml version="1.0" encoding="UTF-8" standalone="no" ?>
<!DOCTYPE svg PUBLIC "-//W3C//DTD SVG 1.1//EN" "http://www.w3.org/Graphics/SVG/1.1/DTD/svg11.dtd">
<svg xmlns="http://www.w3.org/2000/svg" xmlns:xlink="http://www.w3.org/1999/xlink" version="1.1" width="235" height="265" viewBox="0 0 235 265" xml:space="preserve">
<desc>Created with Fabric.js 3.6.3</desc>
<defs>
</defs>
<g transform="matrix(1 0 0 1 117.98 132.78)" id="eaqYRNGxMEm3"  >
<path style="stroke: rgb(83,83,83); stroke-width: 3; stroke-dasharray: none; stroke-linecap: butt; stroke-dashoffset: 0; stroke-linejoin: round; stroke-miterlimit: 4; fill: rgb(187,186,186); fill-rule: evenodd; opacity: 1;" vector-effect="non-scaling-stroke"  transform=" translate(-136.5, -137.5)" d="M 126.967919 8.50335 C 132.232342 5.463934 140.766362 5.463185 146.032081 8.50335 L 243.448335 64.74665 C 248.712759 67.786066 252.980417 75.17637 252.980417 81.2567 L 252.980417 193.7433 C 252.980417 199.822133 248.714055 207.213185 243.448335 210.25335 L 146.032081 266.49665 C 140.767658 269.536066 132.233638 269.536815 126.967919 266.49665 L 29.551665 210.25335 C 24.287241 207.213934 20.019583 199.82363 20.019583 193.7433 L 20.019583 81.2567 C 20.019583 75.177867 24.285945 67.786815 29.551665 64.74665 L 126.967919 8.50335 Z" stroke-linecap="round" />
</g>
<g transform="matrix(0.19 0 0 0.19 118.6 133.9)"  >
<path style="stroke: none; stroke-width: 1; stroke-dasharray: none; stroke-linecap: butt; stroke-dashoffset: 0; stroke-linejoin: miter; stroke-miterlimit: 4; fill: rgb(0,0,0); fill-rule: nonzero; opacity: 1;"  transform=" translate(-500, -500)" d="M 500 10 C 236.3 10 22.6 229.4 22.6 500 c 0 270.6 213.8 490 477.4 490 c 263.7 0 477.4 -219.4 477.4 -490 C 977.4 229.4 763.7 10 500 10 z M 643.3 940.1 c -23 4.6 -31.1 -9.9 -31.1 -22.3 c 0 -15.2 0.5 -65.2 0.5 -127.2 c 0 -43.3 -14.5 -71.6 -30.7 -86 c 100.8 -11.4 206.5 -50.7 206.5 -228.8 c 0 -50.6 -17.5 -92.1 -46.5 -124.5 c 4.6 -11.7 20.2 -58.8 -4.5 -122.7 c 0 0 -37.9 -12.5 -124.3 47.6 c -36.1 -10.3 -74.8 -15.5 -113.2 -15.7 c -38.5 0.2 -77.2 5.3 -113.2 15.7 c -86.4 -60 -124.4 -47.6 -124.4 -47.6 c -24.6 63.9 -9.1 111 -4.4 122.7 c -28.9 32.4 -46.5 73.8 -46.5 124.5 c 0 177.7 105.6 217.5 206 229.2 c -12.9 11.6 -24.6 32 -28.7 62 c -25.8 11.8 -91.3 32.3 -131.6 -38.6 c 0 0 -23.9 -44.5 -69.3 -47.8 c 0 0 -44.2 -0.6 -3.1 28.2 c 0 0 29.7 14.2 50.2 67.8 c 0 0 26.6 90.2 152.4 62.2 c 0.2 38.7 0.6 67.9 0.6 78.9 c 0 12.3 -8.2 26.6 -30.9 22.3 c -179.8 -61.3 -309.3 -235.1 -309.3 -440 C 47.7 244 250.2 36.4 500 36.4 c 249.8 0 452.3 207.6 452.3 463.8 C 952.3 705 822.8 878.7 643.3 940.1 z" stroke-linecap="round" />
</g>
</svg>