<svg width="235" height="265" xmlns="http://www.w3.org/2000/svg" xml:space="preserve" version="1.1">
 <desc>Created with Fabric.js 3.6.3</desc>

 <g>
  <title>Layer 1</title>
  <g id="eaqYRNGxMEm3" transform="matrix(1 0 0 1 117.98 132.78)">
   <path id="svg_1" fill-rule=" evenodd" fill=" rgb(187,186,186)" stroke-miterlimit="4" stroke-linejoin=" round" stroke-dashoffset="0" stroke-dasharray=" none" stroke-width="3" stroke=" rgb(83,83,83)" stroke-linecap=" butt" d="m-9.53208,-128.99665c5.26442,-3.03942 13.79844,-3.04016 19.06416,0l97.41625,56.2433c5.26443,3.03942 9.53209,10.42972 9.53209,16.51005l0,112.4866c0,6.07883 -4.26636,13.46989 -9.53209,16.51005l-97.41625,56.2433c-5.26442,3.03942 -13.79844,3.04016 -19.06416,0l-97.41626,-56.2433c-5.26442,-3.03942 -9.53208,-10.42972 -9.53208,-16.51005l0,-112.4866c0,-6.07883 4.26637,-13.46988 9.53208,-16.51005l97.41626,-56.2433z" vector-effect="non-scaling-stroke"/>
  </g>
  <g id="svg_2" transform="matrix(0.19 0 0 0.19 118.6 133.9)">
   <path id="svg_3" fill-rule=" nonzero" fill=" rgb(0,0,0)" stroke-miterlimit="4" stroke-linejoin=" miter" stroke-dashoffset="0" stroke-dasharray=" none" stroke=" none" stroke-linecap=" butt" d="m0,-490c-263.7,0 -477.4,219.4 -477.4,490c0,270.6 213.8,490 477.4,490c263.7,0 477.4,-219.4 477.4,-490c0,-270.6 -213.7,-490 -477.4,-490zm143.3,930.1c-23,4.6 -31.1,-9.9 -31.1,-22.3c0,-15.2 0.5,-65.2 0.5,-127.2c0,-43.3 -14.5,-71.6 -30.7,-86c100.8,-11.4 206.5,-50.7 206.5,-228.8c0,-50.6 -17.5,-92.1 -46.5,-124.5c4.6,-11.7 20.2,-58.8 -4.5,-122.7c0,0 -37.9,-12.5 -124.3,47.6c-36.1,-10.3 -74.8,-15.5 -113.2,-15.7c-38.5,0.2 -77.2,5.3 -113.2,15.7c-86.4,-60 -124.4,-47.6 -124.4,-47.6c-24.6,63.9 -9.1,111 -4.4,122.7c-28.9,32.4 -46.5,73.8 -46.5,124.5c0,177.7 105.6,217.5 206,229.2c-12.9,11.6 -24.6,32 -28.7,62c-25.8,11.8 -91.3,32.3 -131.6,-38.6c0,0 -23.9,-44.5 -69.3,-47.8c0,0 -44.2,-0.6 -3.1,28.2c0,0 29.7,14.2 50.2,67.8c0,0 26.6,90.2 152.4,62.2c0.2,38.7 0.6,67.9 0.6,78.9c0,12.3 -8.2,26.6 -30.9,22.3c-179.8,-61.3 -309.3,-235.1 -309.3,-440c-0.1,-256 202.4,-463.6 452.2,-463.6c249.8,0 452.3,207.6 452.3,463.8c0,204.8 -129.5,378.5 -309,439.9z"/>
  </g>
 </g>
</svg>