<?xml version="1.0" encoding="UTF-8" standalone="no" ?>
<!DOCTYPE svg PUBLIC "-//W3C//DTD SVG 1.1//EN" "http://www.w3.org/Graphics/SVG/1.1/DTD/svg11.dtd">
<svg xmlns="http://www.w3.org/2000/svg" xmlns:xlink="http://www.w3.org/1999/xlink" version="1.1" width="236" height="266" viewBox="0 0 236 266" xml:space="preserve">
<desc>Created with Fabric.js 3.6.3</desc>
<defs>
</defs>
<g transform="matrix(1 0 0 1 118.48 133.28)"  >
<path style="stroke: rgb(89,89,89); stroke-width: 4; stroke-dasharray: none; stroke-linecap: butt; stroke-dashoffset: 0; stroke-linejoin: miter; stroke-miterlimit: 4; fill: rgb(187,186,186); fill-rule: evenodd; opacity: 1;"  transform=" translate(-136.5, -137.5)" d="M 126.967919 8.50335 C 132.232342 5.463934 140.766362 5.463185 146.032081 8.50335 L 243.448335 64.74665 C 248.712759 67.786066 252.980417 75.17637 252.980417 81.2567 L 252.980417 193.7433 C 252.980417 199.822133 248.714055 207.213185 243.448335 210.25335 L 146.032081 266.49665 C 140.767658 269.536066 132.233638 269.536815 126.967919 266.49665 L 29.551665 210.25335 C 24.287241 207.213934 20.019583 199.82363 20.019583 193.7433 L 20.019583 81.2567 C 20.019583 75.177867 24.285945 67.786815 29.551665 64.74665 L 126.967919 8.50335 Z" stroke-linecap="round" />
</g>
<g transform="matrix(0.12 0 0 0.12 116.63 135.63)"  >
<g style=""   >
		<g transform="matrix(1 0 0 1 225.61 0.01)"  >
<path style="stroke: none; stroke-width: 1; stroke-dasharray: none; stroke-linecap: butt; stroke-dashoffset: 0; stroke-linejoin: miter; stroke-miterlimit: 4; fill: rgb(0,0,0); fill-rule: nonzero; opacity: 1;"  transform=" translate(-725.61, -500.01)" d="M 811.7 869.3 c -11.1 0 -22.1 -4.2 -30.6 -12.7 c -16.9 -16.9 -16.9 -44.3 0 -61.1 c 78.9 -78.9 122.4 -183.9 122.4 -295.5 c 0 -111.6 -43.5 -216.6 -122.4 -295.5 c -16.9 -16.9 -16.9 -44.3 0 -61.1 c 16.9 -16.9 44.3 -16.9 61.1 0 C 937.5 238.6 990 365.3 990 500 s -52.5 261.4 -147.7 356.7 C 833.8 865.1 822.8 869.3 811.7 869.3 L 811.7 869.3 z M 658.1 787.8 c -11.1 0 -22.1 -4.2 -30.6 -12.7 c -16.9 -16.9 -16.9 -44.3 0 -61.1 c 118 -118 118 -310 0 -428 c -16.9 -16.9 -16.9 -44.3 0 -61.1 c 16.9 -16.9 44.3 -16.9 61.1 0 c 73.5 73.5 114 171.2 114 275.1 c 0 103.9 -40.5 201.7 -114 275.1 C 680.2 783.6 669.2 787.8 658.1 787.8 L 658.1 787.8 L 658.1 787.8 z M 504.5 706.3 c -11.1 0 -22.1 -4.2 -30.6 -12.7 c -16.9 -16.9 -16.9 -44.3 0 -61.1 c 73 -73 73 -191.9 0 -265 c -16.9 -16.9 -16.9 -44.3 0 -61.1 c 16.9 -16.9 44.3 -16.9 61.1 0 c 106.8 106.8 106.8 280.5 0 387.2 C 526.7 702.1 515.6 706.3 504.5 706.3 z" stroke-linecap="round" />
</g>
		<g transform="matrix(1 0 0 1 -288.25 0.04)"  >
<path style="stroke: none; stroke-width: 1; stroke-dasharray: none; stroke-linecap: butt; stroke-dashoffset: 0; stroke-linejoin: miter; stroke-miterlimit: 4; fill: rgb(0,0,0); fill-rule: nonzero; opacity: 1;"  transform=" translate(-211.75, -500.04)" d="M 384.7 903.5 c -7.5 0 -14.9 -2.9 -20.4 -8.4 L 142.2 672.9 H 38.8 C 22.9 672.9 10 660 10 644.1 V 355.9 c 0 -15.9 12.9 -28.8 28.8 -28.8 h 103.4 l 222.1 -222.1 c 8.2 -8.2 20.6 -10.7 31.4 -6.2 c 10.8 4.5 17.8 15 17.8 26.6 v 749.4 c 0 11.7 -7 22.2 -17.8 26.6 C 392.2 902.8 388.4 903.5 384.7 903.5 z" stroke-linecap="round" />
</g>
</g>
</g>
<g transform="matrix(2.3 0 0 2.3 115.87 132.13)"  >
<circle style="stroke: rgb(0,0,0); stroke-width: 4; stroke-dasharray: none; stroke-linecap: butt; stroke-dashoffset: 0; stroke-linejoin: miter; stroke-miterlimit: 4; fill: none; fill-rule: nonzero; opacity: 1;" vector-effect="non-scaling-stroke"  cx="0" cy="0" r="40" />
</g>
</svg>