<?xml version="1.0" encoding="UTF-8" standalone="no" ?>
<!DOCTYPE svg PUBLIC "-//W3C//DTD SVG 1.1//EN" "http://www.w3.org/Graphics/SVG/1.1/DTD/svg11.dtd">
<svg xmlns="http://www.w3.org/2000/svg" xmlns:xlink="http://www.w3.org/1999/xlink" version="1.1" width="236" height="266" viewBox="0 0 236 266" xml:space="preserve">
<desc>Created with Fabric.js 3.6.3</desc>
<defs>
</defs>
<g transform="matrix(1 0 0 1 118.48 133.28)"  >
<path style="stroke: rgb(89,89,89); stroke-width: 4; stroke-dasharray: none; stroke-linecap: butt; stroke-dashoffset: 0; stroke-linejoin: miter; stroke-miterlimit: 4; fill: rgb(187,186,186); fill-rule: evenodd; opacity: 1;"  transform=" translate(-136.5, -137.5)" d="M 126.967919 8.50335 C 132.232342 5.463934 140.766362 5.463185 146.032081 8.50335 L 243.448335 64.74665 C 248.712759 67.786066 252.980417 75.17637 252.980417 81.2567 L 252.980417 193.7433 C 252.980417 199.822133 248.714055 207.213185 243.448335 210.25335 L 146.032081 266.49665 C 140.767658 269.536066 132.233638 269.536815 126.967919 266.49665 L 29.551665 210.25335 C 24.287241 207.213934 20.019583 199.82363 20.019583 193.7433 L 20.019583 81.2567 C 20.019583 75.177867 24.285945 67.786815 29.551665 64.74665 L 126.967919 8.50335 Z" stroke-linecap="round" />
</g>
<g transform="matrix(2.3 0 0 2.3 117.5 131.76)"  >
<circle style="stroke: rgb(0,0,0); stroke-width: 3; stroke-dasharray: none; stroke-linecap: butt; stroke-dashoffset: 0; stroke-linejoin: miter; stroke-miterlimit: 4; fill: none; fill-rule: nonzero; opacity: 1;" vector-effect="non-scaling-stroke"  cx="0" cy="0" r="40" />
</g>
<g transform="matrix(0.13 0 0 0.13 118.13 132.13)"  >
<g style=""   >
		<g transform="matrix(0.1 0 0 -0.1 -43.01 -6.32)"  >
<path style="stroke: none; stroke-width: 1; stroke-dasharray: none; stroke-linecap: butt; stroke-dashoffset: 0; stroke-linejoin: miter; stroke-miterlimit: 4; fill: rgb(0,0,0); fill-rule: nonzero; opacity: 1;"  transform=" translate(-4569.93, -173.22)" d="M 6973.6 4066.2 c -158.8 -81.7 -221.8 -184.4 -221.8 -364.2 c 0 -184.4 84 -308.2 256.8 -382.9 c 44.4 -21 168.1 -84 275.5 -144.7 l 193.8 -107.4 l -273.1 -273.2 l -273.2 -275.5 l -107.4 56 c -186.8 93.4 -294.2 116.7 -399.2 84 c -107.4 -32.7 -221.8 -121.4 -268.5 -214.8 c -77 -144.7 -25.7 -389.9 100.4 -490.3 l 60.7 -46.7 L 5663.9 1253 l -651.4 -651.4 l -11.7 1417.1 c -11.7 1288.7 -16.3 1426.4 -51.4 1494.2 c -95.7 170.4 -235.8 210.1 -417.9 116.7 c -56 -28 -658.4 -497.3 -1340.1 -1043.6 l -1237.3 -992.2 l -642 -11.7 c -621 -11.7 -646.7 -14 -758.8 -70 c -149.4 -72.4 -312.8 -235.8 -385.2 -385.2 c -58.4 -116.7 -58.4 -116.7 -65.4 -966.5 c -7 -730.7 -2.3 -863.8 30.3 -968.9 c 51.4 -161.1 142.4 -287.2 277.8 -389.9 c 189.1 -142.4 298.8 -161.1 952.5 -161.1 h 574.3 L 2246 -1607 l 308.2 -247.5 l -583.7 -588.3 c -319.8 -322.2 -600 -618.7 -621 -660.7 c -49 -100.4 -46.7 -275.5 7 -394.5 c 86.4 -191.4 324.5 -298.8 534.6 -242.8 c 102.7 28 315.2 235.8 3586 3499.6 c 2414 2411.7 3487.9 3497.3 3518.3 3562.7 c 119.1 254.5 -9.3 548.6 -280.2 639.7 c -177.4 58.4 -312.8 16.3 -504.3 -163.4 l -149.4 -142.4 l -217.1 135.4 C 7368.2 4084.9 7144 4154.9 6973.6 4066.2 z" stroke-linecap="round" />
</g>
		<g transform="matrix(0.1 0 0 -0.1 332.28 74.63)"  >
<path style="stroke: none; stroke-width: 1; stroke-dasharray: none; stroke-linecap: butt; stroke-dashoffset: 0; stroke-linejoin: miter; stroke-miterlimit: 4; fill: rgb(0,0,0); fill-rule: nonzero; opacity: 1;"  transform=" translate(-8322.78, 636.33)" d="M 8789.9 2324.6 l -282.5 -287.2 l 46.7 -70 c 200.8 -312.8 399.2 -826.5 476.3 -1237.4 c 65.4 -345.5 58.4 -964.2 -11.7 -1295.7 c -135.4 -637.4 -410.9 -1190.7 -835.8 -1673.9 c -259.1 -294.2 -691 -618.7 -1069.3 -803.1 c -105.1 -49 -212.4 -112.1 -240.5 -137.7 c -203.1 -189.1 -156.4 -530 88.7 -653.7 c 158.8 -81.7 270.8 -63 567.3 88.7 c 466.9 240.5 831.1 513.6 1186 887.2 C 9959.6 -1548.6 10256.1 417.2 9450.6 2021 c -135.4 270.8 -329.2 588.3 -359.5 588.3 C 9081.8 2609.4 8946.4 2481 8789.9 2324.6 z" stroke-linecap="round" />
</g>
		<g transform="matrix(0.1 0 0 -0.1 222.3 60.03)"  >
<path style="stroke: none; stroke-width: 1; stroke-dasharray: none; stroke-linecap: butt; stroke-dashoffset: 0; stroke-linejoin: miter; stroke-miterlimit: 4; fill: rgb(0,0,0); fill-rule: nonzero; opacity: 1;"  transform=" translate(-7222.98, 490.32)" d="M 7655.3 1189.9 l -296.5 -296.5 l 56 -165.8 c 168.1 -490.3 133 -989.9 -100.4 -1468.5 c -191.4 -392.2 -480.9 -684 -882.5 -889.5 c -100.4 -51.3 -200.8 -123.7 -235.8 -168.1 c -60.7 -81.7 -93.4 -254.5 -65.4 -364.2 c 39.7 -158.8 280.1 -315.2 438.9 -284.8 c 331.5 63 938.5 525.3 1237.4 940.9 C 8161.9 -1014 8323 -516.7 8325.4 99.7 c 0 373.5 -32.7 588.3 -135.4 894.2 c -53.7 151.8 -186.8 441.3 -219.4 476.3 C 7961.1 1479.4 7818.7 1353.4 7655.3 1189.9 z" stroke-linecap="round" />
</g>
		<g transform="matrix(0.1 0 0 -0.1 119.23 49.09)"  >
<path style="stroke: none; stroke-width: 1; stroke-dasharray: none; stroke-linecap: butt; stroke-dashoffset: 0; stroke-linejoin: miter; stroke-miterlimit: 4; fill: rgb(0,0,0); fill-rule: nonzero; opacity: 1;"  transform=" translate(-6192.28, 380.9)" d="M 6158.8 -306.6 c -445.9 -445.9 -569.7 -583.7 -546.3 -602.3 c 144.7 -116.7 324.5 -130.7 511.3 -37.3 c 170.4 84 436.6 352.5 518.3 527.6 c 102.7 214.8 165.8 581.3 114.4 663 C 6744.8 263.1 6546.4 83.3 6158.8 -306.6 z" stroke-linecap="round" />
</g>
		<g transform="matrix(0.1 0 0 -0.1 -65.11 257.66)"  >
<path style="stroke: none; stroke-width: 1; stroke-dasharray: none; stroke-linecap: butt; stroke-dashoffset: 0; stroke-linejoin: miter; stroke-miterlimit: 4; fill: rgb(0,0,0); fill-rule: nonzero; opacity: 1;"  transform=" translate(-4348.86, 2466.58)" d="M 4342.5 -2122.9 l -644.4 -649 l 380.5 -303.5 c 210.1 -165.7 422.6 -322.2 471.6 -343.2 c 172.8 -79.4 308.2 -35 399.2 128.4 c 35 65.4 39.7 163.4 46.7 786.8 c 4.7 392.2 4.7 782.1 0 870.8 l -7 156.4 L 4342.5 -2122.9 z" stroke-linecap="round" />
</g>
</g>
</g>
</svg>