<svg width="236" height="266" xmlns="http://www.w3.org/2000/svg" xml:space="preserve" version="1.1">
 <desc>Created with Fabric.js 3.6.3</desc>

 <g>
  <title>Layer 1</title>
  <g id="svg_1" transform="matrix(1 0 0 1 118.48 133.28)">
   <path id="svg_2" fill-rule=" evenodd" fill=" rgb(187,186,186)" stroke-miterlimit="4" stroke-linejoin=" miter" stroke-dashoffset="0" stroke-dasharray=" none" stroke-width="4" stroke=" rgb(89,89,89)" stroke-linecap=" butt" d="m-9.53208,-128.99665c5.26442,-3.03942 13.79844,-3.04016 19.06416,0l97.41625,56.2433c5.26443,3.03942 9.53209,10.42972 9.53209,16.51005l0,112.4866c0,6.07883 -4.26636,13.46989 -9.53209,16.51005l-97.41625,56.2433c-5.26442,3.03942 -13.79844,3.04016 -19.06416,0l-97.41626,-56.2433c-5.26442,-3.03942 -9.53208,-10.42972 -9.53208,-16.51005l0,-112.4866c0,-6.07883 4.26637,-13.46988 9.53208,-16.51005l97.41626,-56.2433z"/>
  </g>
  <g id="svg_3" transform="matrix(0.12 0 0 0.12 116.63 135.63)">
   <g id="svg_4">
    <g id="svg_5" transform="matrix(1 0 0 1 225.61 0.01)">
     <path id="svg_6" fill-rule=" nonzero" fill=" rgb(0,0,0)" stroke-miterlimit="4" stroke-linejoin=" miter" stroke-dashoffset="0" stroke-dasharray=" none" stroke=" none" stroke-linecap=" butt" d="m86.09001,369.28999c-11.1,0 -22.1,-4.2 -30.6,-12.7c-16.9,-16.9 -16.9,-44.3 0,-61.1c78.9,-78.9 122.4,-183.9 122.4,-295.5c0,-111.6 -43.5,-216.6 -122.4,-295.5c-16.9,-16.9 -16.9,-44.3 0,-61.1c16.9,-16.9 44.3,-16.9 61.1,0c95.3,95.2 147.8,221.9 147.8,356.6s-52.5,261.4 -147.7,356.7c-8.5,8.4 -19.5,12.6 -30.6,12.6l0,0zm-153.6,-81.5c-11.1,0 -22.1,-4.2 -30.6,-12.7c-16.9,-16.9 -16.9,-44.3 0,-61.1c118,-118 118,-310 0,-428c-16.9,-16.9 -16.9,-44.3 0,-61.1c16.9,-16.9 44.3,-16.9 61.1,0c73.5,73.5 114,171.2 114,275.1c0,103.9 -40.5,201.7 -114,275.1c-8.4,8.5 -19.4,12.7 -30.5,12.7l0,0l0,0zm-153.6,-81.5c-11.1,0 -22.1,-4.2 -30.6,-12.7c-16.9,-16.9 -16.9,-44.3 0,-61.1c73,-73 73,-191.9 0,-265c-16.9,-16.9 -16.9,-44.3 0,-61.1c16.9,-16.9 44.3,-16.9 61.1,0c106.8,106.8 106.8,280.5 0,387.2c-8.3,8.5 -19.4,12.7 -30.5,12.7z"/>
    </g>
    <g id="svg_7" transform="matrix(1 0 0 1 -288.25 0.04)">
     <path id="svg_8" fill-rule=" nonzero" fill=" rgb(0,0,0)" stroke-miterlimit="4" stroke-linejoin=" miter" stroke-dashoffset="0" stroke-dasharray=" none" stroke=" none" stroke-linecap=" butt" d="m172.95,403.45999c-7.5,0 -14.9,-2.9 -20.4,-8.4l-222.1,-222.2l-103.4,0c-15.9,0 -28.8,-12.9 -28.8,-28.8l0,-288.2c0,-15.9 12.9,-28.8 28.8,-28.8l103.4,0l222.1,-222.1c8.2,-8.2 20.6,-10.7 31.4,-6.2c10.8,4.5 17.8,15 17.8,26.6l0,749.4c0,11.7 -7,22.2 -17.8,26.6c-3.5,1.4 -7.3,2.1 -11,2.1z"/>
    </g>
   </g>
  </g>
  <g id="svg_9" transform="matrix(2.3 0 0 2.3 115.87 132.13)">
   <circle id="svg_10" fill-rule=" nonzero" fill=" none" stroke-miterlimit="4" stroke-linejoin=" miter" stroke-dashoffset="0" stroke-linecap=" butt" stroke-dasharray=" none" stroke-width="4" stroke=" rgb(0,0,0)" r="40" cy="0" cx="0" vector-effect="non-scaling-stroke"/>
  </g>
 </g>
</svg>