<svg width="236" height="266" xmlns="http://www.w3.org/2000/svg" xml:space="preserve" version="1.1">
 <desc>Created with Fabric.js 3.6.3</desc>

 <g>
  <title>Layer 1</title>
  <g id="svg_1" transform="matrix(1 0 0 1 118.48 133.28)">
   <path id="svg_2" fill-rule=" evenodd" fill=" rgb(187,186,186)" stroke-miterlimit="4" stroke-linejoin=" miter" stroke-dashoffset="0" stroke-dasharray=" none" stroke-width="4" stroke=" rgb(89,89,89)" stroke-linecap=" butt" d="m-9.53208,-128.99665c5.26442,-3.03942 13.79844,-3.04016 19.06416,0l97.41625,56.2433c5.26443,3.03942 9.53209,10.42972 9.53209,16.51005l0,112.4866c0,6.07883 -4.26636,13.46989 -9.53209,16.51005l-97.41625,56.2433c-5.26442,3.03942 -13.79844,3.04016 -19.06416,0l-97.41626,-56.2433c-5.26442,-3.03942 -9.53208,-10.42972 -9.53208,-16.51005l0,-112.4866c0,-6.07883 4.26637,-13.46988 9.53208,-16.51005l97.41626,-56.2433z"/>
  </g>
  <g id="svg_3" transform="matrix(2.3 0 0 2.3 117.5 131.76)">
   <circle id="svg_4" fill-rule=" nonzero" fill=" none" stroke-miterlimit="4" stroke-linejoin=" miter" stroke-dashoffset="0" stroke-linecap=" butt" stroke-dasharray=" none" stroke-width="3" stroke=" rgb(0,0,0)" r="40" cy="0" cx="0" vector-effect="non-scaling-stroke"/>
  </g>
  <g id="svg_5" transform="matrix(0.13 0 0 0.13 118.13 132.13)">
   <g id="svg_6">
    <g id="svg_7" transform="matrix(0.1 0 0 -0.1 -43.01 -6.32)">
     <path id="svg_8" fill-rule=" nonzero" fill=" rgb(0,0,0)" stroke-miterlimit="4" stroke-linejoin=" miter" stroke-dashoffset="0" stroke-dasharray=" none" stroke=" none" stroke-linecap=" butt" d="m2403.66982,3892.98c-158.8,-81.7 -221.8,-184.4 -221.8,-364.2c0,-184.4 84,-308.2 256.8,-382.9c44.4,-21 168.1,-84 275.5,-144.7l193.8,-107.4l-273.1,-273.2l-273.2,-275.5l-107.4,56c-186.8,93.4 -294.2,116.7 -399.2,84c-107.4,-32.7 -221.8,-121.4 -268.5,-214.8c-77,-144.7 -25.7,-389.9 100.4,-490.3l60.7,-46.7l-653.7,-653.5l-651.4,-651.4l-11.7,1417.1c-11.7,1288.7 -16.3,1426.4 -51.4,1494.2c-95.7,170.4 -235.8,210.1 -417.9,116.7c-56,-28 -658.4,-497.3 -1340.1,-1043.6l-1237.3,-992.2l-642,-11.7c-621,-11.7 -646.7,-14 -758.8,-70c-149.4,-72.4 -312.8,-235.8 -385.2,-385.2c-58.4,-116.7 -58.4,-116.7 -65.4,-966.5c-7,-730.7 -2.3,-863.8 30.3,-968.9c51.4,-161.1 142.4,-287.2 277.8,-389.9c189.1,-142.4 298.8,-161.1 952.5,-161.1l574.3,0l308.4,-247.5l308.2,-247.5l-583.7,-588.3c-319.8,-322.2 -600,-618.7 -621,-660.7c-49,-100.4 -46.7,-275.5 7,-394.5c86.4,-191.4 324.5,-298.8 534.6,-242.8c102.7,28 315.2,235.8 3586,3499.6c2414,2411.7 3487.9,3497.3 3518.3,3562.7c119.1,254.5 -9.3,548.6 -280.2,639.7c-177.4,58.4 -312.8,16.3 -504.3,-163.4l-149.4,-142.4l-217.1,135.4c-476.2,294.1 -700.4,364.1 -870.8,275.4z"/>
    </g>
    <g id="svg_9" transform="matrix(0.1 0 0 -0.1 332.28 74.63)">
     <path id="svg_10" fill-rule=" nonzero" fill=" rgb(0,0,0)" stroke-miterlimit="4" stroke-linejoin=" miter" stroke-dashoffset="0" stroke-dasharray=" none" stroke=" none" stroke-linecap=" butt" d="m467.11973,2960.93002l-282.5,-287.2l46.7,-70c200.8,-312.8 399.2,-826.5 476.3,-1237.4c65.4,-345.5 58.4,-964.2 -11.7,-1295.7c-135.4,-637.4 -410.9,-1190.7 -835.8,-1673.9c-259.1,-294.2 -691,-618.7 -1069.3,-803.1c-105.1,-49 -212.4,-112.1 -240.5,-137.7c-203.1,-189.1 -156.4,-530 88.7,-653.7c158.8,-81.7 270.8,-63 567.3,88.7c466.9,240.5 831.1,513.6 1186,887.2c1244.5,1309.6 1541,3275.4 735.5,4879.2c-135.4,270.8 -329.2,588.3 -359.5,588.3c-9.3,0.1 -144.7,-128.3 -301.2,-284.7z"/>
    </g>
    <g id="svg_11" transform="matrix(0.1 0 0 -0.1 222.3 60.03)">
     <path id="svg_12" fill-rule=" nonzero" fill=" rgb(0,0,0)" stroke-miterlimit="4" stroke-linejoin=" miter" stroke-dashoffset="0" stroke-dasharray=" none" stroke=" none" stroke-linecap=" butt" d="m432.32002,1680.22001l-296.5,-296.5l56,-165.8c168.1,-490.3 133,-989.9 -100.4,-1468.5c-191.4,-392.2 -480.9,-684 -882.5,-889.5c-100.4,-51.3 -200.8,-123.7 -235.8,-168.1c-60.7,-81.7 -93.4,-254.5 -65.4,-364.2c39.7,-158.8 280.1,-315.2 438.9,-284.8c331.5,63 938.5,525.3 1237.4,940.9c354.9,492.6 516,989.9 518.4,1606.3c0,373.5 -32.7,588.3 -135.4,894.2c-53.7,151.8 -186.8,441.3 -219.4,476.3c-9.5,9.2 -151.9,-116.8 -315.3,-280.3z"/>
    </g>
    <g id="svg_13" transform="matrix(0.1 0 0 -0.1 119.23 49.09)">
     <path id="svg_14" fill-rule=" nonzero" fill=" rgb(0,0,0)" stroke-miterlimit="4" stroke-linejoin=" miter" stroke-dashoffset="0" stroke-dasharray=" none" stroke=" none" stroke-linecap=" butt" d="m-33.47979,74.29999c-445.9,-445.9 -569.7,-583.7 -546.3,-602.3c144.7,-116.7 324.5,-130.7 511.3,-37.3c170.4,84 436.6,352.5 518.3,527.6c102.7,214.8 165.8,581.3 114.4,663c-11.7,18.7 -210.1,-161.1 -597.7,-551z"/>
    </g>
    <g id="svg_15" transform="matrix(0.1 0 0 -0.1 -65.11 257.66)">
     <path id="svg_16" fill-rule=" nonzero" fill=" rgb(0,0,0)" stroke-miterlimit="4" stroke-linejoin=" miter" stroke-dashoffset="0" stroke-dasharray=" none" stroke=" none" stroke-linecap=" butt" d="m-6.35986,343.68008l-644.4,-649l380.5,-303.5c210.1,-165.7 422.6,-322.2 471.6,-343.2c172.8,-79.4 308.2,-35 399.2,128.4c35,65.4 39.7,163.4 46.7,786.8c4.7,392.2 4.7,782.1 0,870.8l-7,156.4l-646.6,-646.7z"/>
    </g>
   </g>
  </g>
 </g>
</svg>